<?xml version="1.0" encoding="UTF-8"?>
<svg width="10px" height="10px" viewBox="0 0 10 10" version="1.1" xmlns="http://www.w3.org/2000/svg" xmlns:xlink="http://www.w3.org/1999/xlink">
    <!-- Generator: Sketch 61.2 (89653) - https://sketch.com -->
    <title>女年龄</title>
    <desc>Created with Sketch.</desc>
    <g id="WRX_WEB-" stroke="none" stroke-width="1" fill="none" fill-rule="evenodd">
        <g id="首页_游客" transform="translate(-161.000000, -572.000000)" fill="#FFFFFF" fill-rule="nonzero">
            <g id="编组" transform="translate(155.000000, 567.000000)">
                <path d="M14.8879772,6.11194855 C13.4824009,4.70588383 11.2298896,4.62301269 9.72479322,5.92199217 C8.21969687,7.22097164 7.97230995,9.46139002 9.15773539,11.0574568 L8.50564554,11.7100851 L6.94748645,10.1519261 C6.80727526,10.0117148 6.60291297,9.95695613 6.4113809,10.008277 C6.21984883,10.0595978 6.07024526,10.2092014 6.01892439,10.4007335 C5.96760353,10.5922656 6.02236225,10.7966278 6.16257346,10.936839 L7.72073255,12.4949981 L7.11566928,13.0995229 C6.91053831,13.3181774 6.91607235,13.6602001 7.12816987,13.8721037 C7.3402674,14.0840073 7.68229508,14.0892284 7.90076176,13.8838975 L8.50564554,13.2799111 L10.0638046,14.8380702 C10.2805524,15.0548179 10.6319699,15.0548179 10.8487176,14.8380702 C11.0654653,14.6213225 11.0654653,14.269905 10.8487176,14.0531572 L9.29002006,12.4949981 L9.94264838,11.8423698 C11.5387544,13.0278246 13.7792351,12.780393 15.0781962,11.2752161 C16.3771574,9.77003924 16.2941707,7.51746527 14.8879772,6.11194855 Z M14.1030642,10.6934496 C13.197528,11.5990733 11.7783685,11.7389211 10.7134812,11.0274683 C9.64859385,10.3160155 9.23456205,8.95140979 9.72458938,7.76818397 C10.2146167,6.58495815 11.4722249,5.9126542 12.7283162,6.1624236 C13.9844076,6.41219301 14.8891461,7.51447212 14.8892433,8.79515558 C14.8911496,9.50750821 14.6080698,10.1910361 14.1030642,10.6934496 L14.1030642,10.6934496 Z" id="女年龄"></path>
            </g>
        </g>
    </g>
</svg>