<?xml version="1.0" encoding="UTF-8"?>
<svg width="20px" height="20px" viewBox="0 0 20 20" version="1.1" xmlns="http://www.w3.org/2000/svg" xmlns:xlink="http://www.w3.org/1999/xlink">
    <!-- Generator: Sketch 61.2 (89653) - https://sketch.com -->
    <title>编组</title>
    <desc>Created with Sketch.</desc>
    <g id="WRX_WEB-" stroke="none" stroke-width="1" fill="none" fill-rule="evenodd">
        <g id="会员购买" transform="translate(-561.000000, -578.000000)" fill="#4BA7E8" fill-rule="nonzero">
            <g id="编组-4" transform="translate(540.000000, 566.000000)">
                <g id="编组" transform="translate(21.000000, 12.000000)">
                    <path d="M12.5744445,13.04 C10.82,15.1511111 9.00666668,16.4344445 6.25888889,16.4344445 C3.51111109,16.4344445 1.69666666,14.7388889 1.92555555,12.6922222 C2.04333332,11.3477778 2.97777777,9.12666668 7.01333334,9.47666666 C8.67961182,9.62946739 10.3148446,10.0235851 11.8677778,10.6466667 C12.3327416,9.79283422 12.7052226,8.89180258 12.9788889,7.95888889 L5.26222223,7.95888889 L5.26222223,7.19777777 L9.06444445,7.19777777 L9.06444445,5.85 L4.44444445,5.85 L4.44444445,4.97222223 L9.06444445,4.97222223 L9.06444445,2.98444445 C9.1113735,2.80093802 9.283369,2.67768238 9.47222223,2.69222223 L11.4022222,2.69222223 L11.4022222,4.97222223 L16.3144445,4.97222223 L16.3144445,5.79 L11.3444445,5.79 L11.3444445,7.13555555 L15.38,7.13555555 C15.0490251,8.57648593 14.4973275,9.95760393 13.7444445,11.23 C14.7388889,11.5822222 18.7722222,12.8077778 19.9422222,13.16 L19.9422222,2.92444445 C19.9367353,1.31159662 18.6306256,0.00548696137 17.0177778,0 L2.92555555,0 C1.31176916,0.00366343656 0.00427645096,1.31065958 3.25542063e-16,2.92444445 L3.25542063e-16,17.0755555 C0.00427380152,18.688908 1.31109196,19.9957262 2.92444445,20 L17.0755555,20 C18.688908,19.9957262 19.9957262,18.688908 20,17.0755555 L20,16.3711111 C19,15.9055556 14.5622222,13.9755556 12.5744445,13.04 Z M2.74888889,12.5144445 C2.57444443,13.2744445 3.04111111,15.0888889 5.96444445,15.0888889 C7.96304673,14.9169801 9.77293634,13.8394797 10.8766667,12.1644445 C9.19135342,11.2334609 7.30291816,10.7313027 5.37777777,10.7022222 C4.19101974,10.6379809 3.11037077,11.3826106 2.74777777,12.5144445 L2.74888889,12.5144445 Z" id="形状"></path>
                </g>
            </g>
        </g>
    </g>
</svg>