<?xml version="1.0" encoding="UTF-8"?>
<svg width="16px" height="19px" viewBox="0 0 16 19" version="1.1" xmlns="http://www.w3.org/2000/svg" xmlns:xlink="http://www.w3.org/1999/xlink">
    <!-- Generator: Sketch 61.2 (89653) - https://sketch.com -->
    <title>位置icon</title>
    <desc>Created with Sketch.</desc>
    <g id="WRX_WEB-" stroke="none" stroke-width="1" fill="none" fill-rule="evenodd">
        <g id="首页_游客" transform="translate(-1174.000000, -215.000000)">
            <g id="位置icon" transform="translate(1174.000000, 215.000000)">
                <path d="M7.95454545,18.5371212 L2.33030303,13.1068182 C0.778787879,11.6522727 0.00303030303,9.71287879 0.00303030303,7.67651515 C0.00303030303,5.64015152 0.778787879,3.70075758 2.33030303,2.24621212 C3.78484848,0.791666667 5.82121212,0.0159090909 7.95454545,0.0159090909 C10.0878788,0.0159090909 12.1242424,0.791666667 13.5787879,2.24621212 C15.130303,3.70075758 15.9060606,5.64015152 15.9060606,7.67651515 C15.9060606,9.71287879 15.0333333,11.6522727 13.5787879,13.1068182 L7.95454545,18.5371212 Z" id="形状" fill="#FF82AA" fill-rule="nonzero"></path>
                <path d="M8,11.2874317 C10.4888889,10.0711448 11.7333333,8.63478038 11.7333333,6.97833845 C11.7333333,4.92306753 9.74739859,4.13902947 8,5.43428572 C6.25542302,4.13408213 4.26666667,4.92306753 4.26666667,6.97833845 C4.26666667,8.63478038 5.51111111,10.0711448 8,11.2874317 Z" id="椭圆形" fill="#FFF9F9"></path>
            </g>
        </g>
    </g>
</svg>