<?xml version="1.0" encoding="UTF-8"?>
<svg width="8px" height="10px" viewBox="0 0 8 10" version="1.1" xmlns="http://www.w3.org/2000/svg" xmlns:xlink="http://www.w3.org/1999/xlink">
    <!-- Generator: Sketch 61.2 (89653) - https://sketch.com -->
    <title>价格icon</title>
    <desc>Created with Sketch.</desc>
    <g id="WRX_WEB-" stroke="none" stroke-width="1" fill="none" fill-rule="evenodd">
        <g id="首页_游客" transform="translate(-213.000000, -572.000000)" fill="#FFFFFF" fill-rule="nonzero">
            <g id="编组-2" transform="translate(205.000000, 567.000000)">
                <path d="M15.6056224,6.11935124 C15.6623139,5.98553885 15.6904043,5.84100102 15.6883614,5.69544175 C15.6918623,5.50930541 15.6163294,5.33040185 15.4804925,5.20309384 C15.3369359,5.06738912 15.145254,4.99442871 14.9477966,5.0003323 C14.8088981,4.99715896 14.6714696,5.02931934 14.5484023,5.09379669 C14.4401267,5.1520204 14.3451301,5.23169496 14.2685199,5.32822374 C14.1804991,5.43878386 14.1002898,5.55534338 14.0284748,5.67705531 L13.8052839,6.06317046 L11.8925837,9.21184768 L9.76180008,5.87164509 C9.62514686,5.63334114 9.46148321,5.41158119 9.27404879,5.21075486 C9.13082104,5.07430556 8.93909997,5.00059497 8.74135287,5.00595038 C8.54290536,5 8.35055746,5.07495868 8.20865695,5.21381925 C8.06655042,5.36133056 7.99137918,5.56080216 8.00078806,5.76541234 C7.99925586,5.88492417 8.02377111,6.00443602 8.07280161,6.11373318 C8.16575525,6.29759753 8.26994507,6.4753331 8.38434956,6.6464291 L10.3608915,9.7445436 L9.5003041,9.7445436 C8.88078334,9.74096847 8.57076759,9.94168706 8.57076759,10.3466994 C8.57076759,10.7517118 8.883337,10.9585591 9.50847584,10.9672416 L10.9947128,10.9672416 L10.9947128,11.918229 L9.5003041,11.918229 C8.88078334,11.918229 8.57076759,12.1250764 8.57076759,12.5387712 C8.57076759,12.952466 8.88078334,13.1516524 9.5003041,13.1353089 L10.986541,13.1353089 L10.986541,13.6685156 C10.986541,14.5561718 11.2888958,15 11.8925837,15 C12.4962717,15 12.7940299,14.5561719 12.7848367,13.6685156 L12.7848367,13.1353089 L14.2792453,13.1353089 C14.900809,13.1353089 15.2113355,12.9330581 15.2113355,12.5280458 C15.2113355,12.1230334 14.900809,11.916186 14.2792453,11.9075035 L12.7848367,11.9075035 L12.7848367,10.9672416 L14.2792453,10.9672416 C14.900809,10.9672416 15.2113355,10.7603942 15.2113355,10.3466994 C15.2113355,9.93300461 14.900809,9.73024306 14.2792453,9.73892554 L13.4401088,9.73892554 L15.3451479,6.60148447 C15.4447411,6.4472427 15.5341196,6.28585065 15.6107298,6.11935124 L15.6056224,6.11935124 L15.6056224,6.11935124 Z" id="价格icon"></path>
            </g>
        </g>
    </g>
</svg>