<?xml version="1.0" encoding="UTF-8"?>
<svg width="16px" height="14px" viewBox="0 0 16 14" version="1.1" xmlns="http://www.w3.org/2000/svg" xmlns:xlink="http://www.w3.org/1999/xlink">
    <!-- Generator: Sketch 61.2 (89653) - https://sketch.com -->
    <title>评分icon</title>
    <desc>Created with Sketch.</desc>
    <g id="WRX_WEB-" stroke="none" stroke-width="1" fill="none" fill-rule="evenodd">
        <g id="首页_游客" transform="translate(-375.000000, -547.000000)" fill="#FFFFFF" fill-rule="nonzero">
            <g id="编组-4" transform="translate(361.000000, 540.000000)">
                <path d="M15.5466214,12.3463519 C15.2774515,12.3460326 15.0464673,12.1545289 14.9962826,11.8900785 C14.7413604,10.5572333 15.1514277,9.18374017 16.0953515,8.20881995 C16.8415491,7.43628781 17.8695433,7 18.9436088,7 C20.0176743,7 21.0456685,7.43628781 21.7918661,8.20881995 L22.0000635,8.42243607 L22.2080069,8.20898928 C22.954222,7.43642564 23.9822485,7.00011888 25.0563489,7.00011888 C26.1304492,7.00011888 27.1584758,7.43642564 27.9046908,8.20898928 C28.8226784,9.15955413 29.2367218,10.4884433 29.0211166,11.7922029 C28.968373,12.0951684 28.6814639,12.2991308 28.3779895,12.2493992 C28.0745151,12.1996676 27.8677128,11.9147985 27.9144276,11.6108451 C28.0729654,10.6576704 27.7713318,9.68567352 27.1010269,8.98970837 C26.5661353,8.43366634 25.827858,8.11944429 25.0563065,8.11944429 C24.2847551,8.11944429 23.5464778,8.43366634 23.0115862,8.98970837 L22.6266031,9.38476697 C22.4624197,9.55452511 22.2362282,9.65016746 22.0000635,9.6496916 C21.7638587,9.65028251 21.5376137,9.55458702 21.3735239,9.3846823 L20.9880328,8.98970837 C20.4531992,8.4338146 19.7150556,8.11968396 18.9436511,8.11968396 C18.1722466,8.11968396 17.4341031,8.4338146 16.8992695,8.98970837 C16.2098183,9.70350162 15.9111358,10.7083131 16.0987382,11.6828125 C16.1291984,11.8468342 16.0850917,12.0159044 15.9783872,12.1441429 C15.8716827,12.2723814 15.7134475,12.3464877 15.5466214,12.3463519 L15.5466214,12.3463519 Z M22.0000635,20.1234887 C21.6791452,20.1241242 21.3717889,19.9941206 21.1487317,19.7633948 L16.9835983,15.494205 C16.7678918,15.2723027 16.7729145,14.9175507 16.9948168,14.7018441 C17.2167191,14.4861376 17.5714711,14.4911603 17.7871776,14.7130626 L21.952819,18.9822523 C21.9649036,18.9958996 21.9822581,19.0037128 22.0004868,19.0037128 C22.0187156,19.0037128 22.03607,18.9958996 22.0481546,18.9822523 L26.3069303,14.6168803 C26.5232131,14.3981392 26.8753993,14.3946603 27.0959609,14.6090862 C27.3165225,14.8235121 27.3229786,15.1756563 27.110425,15.3980227 L22.8516493,19.7633948 C22.6285422,19.9942007 22.3210739,20.1242129 22.0000635,20.1234887 L22.0000635,20.1234887 Z M21.3695446,16.2001646 C21.0247399,16.2000597 20.7121154,15.9975548 20.5710453,15.6829289 L19.7690747,13.9165953 L14.5598216,13.9165953 C14.2506407,13.9165953 14,13.6659547 14,13.3567738 C14,13.0475929 14.2506407,12.7969522 14.5598216,12.7969522 L19.9277416,12.7969522 C20.2723143,12.7980844 20.5845658,13.0000983 20.7268335,13.313932 L21.3155267,14.6104456 L22.2660041,11.2390701 C22.3903833,10.8935088 22.7170497,10.6621668 23.0843044,10.6595356 C23.451559,10.6569489 23.7814792,10.8836266 23.9107552,11.2273859 L23.9300593,11.2781864 L24.1862632,12.7588518 L29.4402208,12.7588518 C29.7493783,12.7588518 30,13.0094735 30,13.3186311 C30,13.6277886 29.7493783,13.8784103 29.4402208,13.8784103 L23.9742558,13.8784103 C23.6099247,13.8761899 23.2842803,13.6506558 23.1540816,13.310376 L23.1347774,13.2595755 L23.0305517,12.6567428 L22.1947988,15.6206983 C22.0736657,15.957068 21.7603393,16.1861237 21.4030729,16.1994854 C21.3919315,16.1999624 21.3807808,16.2001646 21.3696292,16.2001646 L21.3695446,16.2001646 Z" id="评分icon"></path>
            </g>
        </g>
    </g>
</svg>