<?xml version="1.0" encoding="UTF-8"?>
<svg width="252px" height="70px" viewBox="0 0 252 70" version="1.1" xmlns="http://www.w3.org/2000/svg" xmlns:xlink="http://www.w3.org/1999/xlink">
    <!-- Generator: Sketch 61.2 (89653) - https://sketch.com -->
    <title>web_logo</title>
    <desc>Created with Sketch.</desc>
    <g id="LOGO" stroke="none" stroke-width="1" fill="none" fill-rule="evenodd">
        <g id="画板" transform="translate(-191.000000, -463.000000)">
            <g id="web_logo" transform="translate(191.000000, 463.000000)">
                <g id="温" transform="translate(91.197183, 5.816901)" stroke="#FF82AA">
                    <path d="M7.07514717,-1.75133773e-14 C-0.826811455,-1.75133773e-14 8.04599472,13.4084507 -3.37132513e-14,13.4084507" id="路径-2" stroke-width="4.73239437" stroke-linejoin="round" transform="translate(3.537574, 6.704225) scale(-1, 1) translate(-3.537574, -6.704225) "></path>
                    <path d="M7.07514717,21.2957746 C-0.826811455,21.2957746 8.04599472,34.7042254 -3.37132513e-14,34.7042254" id="路径-2备份" stroke-width="4.73239437" stroke-linejoin="round" transform="translate(3.537574, 28.000000) scale(-1, 1) translate(-3.537574, -28.000000) "></path>
                    <path d="M7.07514717,42.5915493 C-0.826811455,42.5915493 8.04599472,56 -3.37132513e-14,56" id="路径-2备份-2" stroke-width="4.73239437" stroke-linejoin="round" transform="translate(3.537574, 49.295775) scale(-1, 1) translate(-3.537574, -49.295775) "></path>
                    <rect id="矩形" stroke-width="4.73239437" x="19.7183099" y="-1.75133773e-14" width="22.8732394" height="25.2394366" rx="7.88732394"></rect>
                    <rect id="矩形" stroke-width="2.5" x="20.9683099" y="12.2922535" width="12.4859155" height="2.23239437" rx="1.11619718"></rect>
                    <rect id="矩形备份" stroke-width="2.5" x="13.0809859" y="54.8838028" width="36.1478873" height="2.23239437" rx="1.11619718"></rect>
                    <path d="M39.0481027,54.9810343 C43.4013151,51.4839371 46.5352113,45.5743947 46.5352113,42.1399657 C46.5352113,37.4925601 42.5915493,31.7258644 36.461381,34.7042254 M34.8943252,44.6172179 C33.5645039,42.1661651 32.1608587,40.1535644 30.6833898,38.5794158 C22.4225707,29.0386845 15.971831,36.5871843 15.971831,42.1399657 C15.971831,47.692747 18.7228386,51.5450291 22.2396487,55.2112676" id="形状" stroke-width="4.73239437" stroke-linecap="round" stroke-linejoin="round"></path>
                </g>
                <g id="柔" transform="translate(152.915493, 5.816901)" stroke="#FF82AA" stroke-width="4.73239437">
                    <path d="M0,12.6197183 L37.8591549,12.6197183 C42.2152037,12.6197183 45.7464789,16.1509935 45.7464789,20.5070423" id="路径备份-12"></path>
                    <path d="M9.59611576,12.6197183 L16.5633803,12.6197183 C20.919429,12.6197183 24.4507042,16.1509935 24.4507042,20.5070423" id="路径备份-14"></path>
                    <path d="M0.788732394,23.6619718 L40.590867,23.6619718 C44.1173526,23.6619718 47.1032912,25.9763288 48.1126761,29.169036" id="路径" transform="translate(24.450704, 26.415504) scale(-1, -1) translate(-24.450704, -26.415504) "></path>
                    <path d="M34.7042254,12.6197183 L28.7098592,12.6197183 C23.7439636,12.6197183 19.7183099,9.44157062 19.7183099,5.52112676" id="路径"></path>
                    <path d="M11.0422535,0 L27.6056338,0 C31.5260777,0 34.7042254,3.17814769 34.7042254,7.09859155" id="路径"></path>
                    <line x1="24.4507042" y1="23.6619718" x2="24.4507042" y2="58.3661972" id="路径备份"></line>
                    <path d="M45.7464789,34.7042254 L45.7464789,48.1126761 C45.7464789,52.4687248 42.2152037,56 37.8591549,56 L34.7042254,56" id="路径备份-2" transform="translate(40.225352, 45.352113) scale(-1, 1) translate(-40.225352, -45.352113) "></path>
                    <path d="M13.4084507,34.7042254 L13.4084507,48.1126761 C13.4084507,52.4687248 9.87717549,56 5.52112676,56 L2.36619718,56" id="路径"></path>
                </g>
                <g id="乡" transform="translate(216.211268, 3.450704)" stroke="#FF82AA" stroke-width="4.73239437">
                    <path d="M20.7042254,22.8732394 L9.66197183,22.8732394 C5.3059231,22.8732394 1.77464789,19.3419642 1.77464789,14.9859155 C1.77464789,10.6298668 5.3059231,7.09859155 9.66197183,7.09859155 L20.7042254,7.09859155" id="路径"></path>
                    <path d="M34.9014085,46.5352113 L9.66197183,46.5352113 C5.3059231,46.5352113 1.77464789,43.0039361 1.77464789,38.6478873 C1.77464789,34.2918386 5.3059231,30.7605634 9.66197183,30.7605634 L20.7042254,30.7605634" id="路径"></path>
                    <path d="M27.8028169,0 L27.8028169,50.4788732 C27.8028169,54.834922 24.2715417,58.3661972 19.915493,58.3661972 C17.0114605,58.3661972 10.3991512,58.3661972 0.0785651408,58.3661972" id="路径"></path>
                </g>
                <rect id="矩形" fill="#FF82AA" x="0" y="0" width="70" height="70" rx="14.7887324"></rect>
                <g id="编组" transform="translate(10.845070, 8.380282)" fill="#FFFFFF" fill-rule="nonzero">
                    <path d="M48.5689931,31.2280857 C48.0456955,29.16753 46.8170814,27.6562995 44.9528823,26.6676703 C44.2348355,26.2869194 43.4833778,25.969983 42.7562378,25.6059541 C42.4174011,25.4363899 42.0986733,25.2260887 41.7740739,25.0287588 C41.703719,24.9860422 41.6473934,24.9200398 41.5486678,24.8330959 C43.131395,24.6165956 44.5125142,24.0324198 45.7457008,23.0911957 C45.6624596,23.1302136 45.5789065,23.1683981 45.4962368,23.2083538 C44.4754661,23.7014702 43.4477846,24.1777605 42.314103,24.3519088 C42.0352291,24.3947817 41.7500161,24.3949901 41.4698952,24.4313513 C41.2141959,24.4645869 41.0851252,24.343626 40.9857241,24.1236354 C40.616906,23.3074876 40.6825326,22.4815983 40.9218642,21.6546671 C41.0152378,21.3322088 41.1430095,21.0191794 41.2660528,20.7061499 C42.8295545,16.7291809 41.5061119,12.8193083 37.851602,10.617944 C36.9565872,10.0781159 35.9999522,9.64837342 35.0023813,9.33800837 C33.8911467,8.99210797 32.9813644,8.35776623 32.2674224,7.4552475 C31.685513,6.71958404 31.1395604,5.95396685 30.6043637,5.18298404 C28.6671597,2.39233883 26.0166372,0.745196562 22.6833492,0.185192155 C22.2231321,0.107937594 21.7577708,0.0609493168 21.2947997,0 L19.2767965,0 C19.208468,0.0146382547 19.140763,0.0377677391 19.0717071,0.0426124283 C17.1506108,0.178993036 15.2979471,0.616734155 13.5113255,1.33077884 C11.5184194,2.12728744 9.69329488,3.19212931 8.20612365,4.77165429 C7.36155214,5.66865112 6.70798868,6.68166002 6.44932762,7.90955433 C6.30799413,8.58051775 6.31043629,9.25163745 6.50160022,9.97641339 C6.60422288,9.64838104 6.6793063,9.3758282 6.77408287,9.11036006 C7.56664158,6.89159656 9.12292072,5.37171855 11.1771406,4.32391123 C13.1874536,3.298452 15.3439324,2.87217144 17.5837045,2.84169678 C19.185865,2.81997382 20.7621491,3.01339674 22.285589,3.53875901 C23.9782653,4.12246593 25.3848973,5.15250938 26.6578339,6.38420652 C27.6827096,7.3759613 28.6984401,8.3770408 29.7173922,9.3749947 C29.7236275,9.38108963 29.716301,9.4011977 29.7160932,9.40604239 C29.1018121,9.12046619 28.496936,8.8101977 27.8703921,8.55379382 C26.332663,7.92460934 24.8854497,7.1474795 23.5252707,6.18119841 C21.2382143,4.55635213 18.6738429,3.82886734 15.8667104,4.00202591 C14.3319431,4.09667968 12.8456032,4.44862291 11.3579124,4.81749651 C10.5496615,5.01795204 9.91314119,5.49715954 9.19551002,5.88973565 C9.26524147,6.02903349 9.31876113,6.14916095 9.38350434,6.262933 C9.83852543,7.06308814 10.5053909,7.65419232 11.2745152,8.12944072 C13.2977665,9.37968311 15.5422669,9.9588579 17.8740097,10.2129697 C19.3505809,10.3739905 20.840558,10.407174 22.3196233,10.5499621 C24.2695578,10.7382798 26.192005,11.0879831 28.0385894,11.7714489 C29.2603966,12.2237762 30.406341,12.8108171 31.3142527,13.7789215 C31.51425,13.992192 31.6852012,14.2327594 31.8696102,14.4608245 C31.4407774,14.2895934 31.0555917,14.0747601 30.6536746,13.8988926 C28.8300049,13.1008733 26.8949313,12.7214769 24.9453086,12.4081348 C23.4172961,12.1625143 21.8815935,11.9636737 20.3565428,11.7018521 C18.9281912,11.4566483 17.5122583,11.1400244 16.0856214,10.8846103 C14.8753495,10.6677974 13.660557,10.4798443 12.4952313,10.0679416 C10.8164285,9.47449316 9.55003884,8.43851105 8.91627246,6.72156359 C8.90603617,6.6937457 8.87704203,6.67296042 8.84570964,6.63571361 C8.6085084,6.96780925 8.39921013,7.29860255 8.15083731,7.59678536 C7.93821355,7.85214737 7.8993988,8.11964715 7.93384884,8.43512498 C8.07403919,9.71636297 8.73056441,10.7087429 9.65006346,11.5538025 C10.6545704,12.4769503 11.8270148,13.130775 13.0792711,13.6437911 C15.0593429,14.4547817 17.1011961,14.9940008 19.2582984,15.0129628 C20.2316289,15.0216103 21.2053231,15.0365611 22.1779781,15.072714 C23.7542622,15.131267 25.320206,15.2799937 26.8470234,15.710025 C29.6334235,16.4948647 31.5976991,18.1773784 32.4727717,20.9901112 C32.7929544,22.0195816 32.9973683,23.08583 33.2400254,24.1386904 C33.4265649,24.9483266 33.5029473,25.785468 33.8955114,26.5403019 C34.5507896,27.8000253 35.5447485,28.7218707 36.7462391,29.4376344 C37.0531198,29.6204303 37.3746015,29.7784818 37.7407176,29.9755512 C36.5522692,29.7313372 35.5794064,29.2197276 34.7873673,28.3648744 C33.9393664,27.4496448 33.3856717,26.3678726 32.9843781,25.2012923 C32.5809022,24.0286691 32.2454949,22.830468 31.796917,21.6759734 C30.7506335,18.9835764 28.8889285,17.1902078 26.0042185,16.5751928 C24.5618375,16.2676852 23.0970614,16.1799078 21.6320255,16.0744707 C20.1594553,15.9684605 18.6756615,15.9175653 17.2204982,15.689917 C12.989223,15.0278615 9.71350764,12.8506686 7.39750904,9.23251916 C7.36882666,9.18771881 7.33219426,9.14797152 7.26028046,9.0560787 C7.28054519,9.1902193 7.28750794,9.25976403 7.30190109,9.32769387 C7.52050035,10.3639364 8.0412519,11.2440029 8.74142423,12.0148294 C10.4022486,13.843361 12.4295528,15.0848517 14.8020328,15.7662338 C16.7818967,16.3348857 18.8135656,16.5139309 20.8580688,16.6169717 C22.466049,16.6980291 24.0713792,16.7989861 25.6614329,17.0880005 C28.1217787,17.5353268 29.9891993,18.8013535 31.1963536,21.0136054 C31.2310634,21.0772635 31.2563684,21.1460269 31.2861939,21.2123939 C31.2243085,21.1949947 31.1969771,21.1608214 31.1720879,21.1250332 C30.0320151,19.4903934 28.5065487,18.3965355 26.5799446,17.8967511 C24.8271496,17.4420796 23.0279535,17.3978002 21.2309398,17.37316 C19.9041197,17.3549794 18.5762085,17.3875378 17.2504796,17.344196 C16.2747589,17.3123148 15.2948814,17.1692663 14.4320196,16.6810987 C13.2471046,16.0107083 12.0612543,15.3294304 10.9446158,14.5534466 C9.17919432,13.32649 7.82192519,11.7338375 7.03102923,9.69969307 C7.02022137,9.67187518 6.99616351,9.64921454 6.94326737,9.57503349 C6.92071636,10.0834654 6.83893,10.5412104 6.89296928,10.9822334 C7.03128903,12.1107334 7.55287196,13.0883188 8.22883053,13.9834924 C9.41826614,15.5584852 10.9822875,16.6729721 12.6945011,17.601798 C12.8341718,17.6775419 12.9886514,17.738387 13.1061349,17.840959 C14.1039909,18.7124821 15.2576774,19.3277056 16.4349542,19.9084432 C16.6623868,20.0205482 16.9006792,20.1481772 17.0730853,20.3273786 C17.5318475,20.8040856 18.0290608,21.266519 18.3832259,21.8172508 C19.7108774,23.8821823 20.1772779,26.140068 19.7887147,28.5813226 C19.6216086,29.6309011 19.5107242,30.6936592 19.6468616,31.7619913 C19.8127726,33.0651086 20.3653761,34.1292732 21.5397431,34.7954961 C21.7114737,34.8929629 21.7661365,34.9800111 21.7462355,35.183488 C21.5985627,36.6925306 21.9184337,38.06488 23.008728,39.1781688 C24.2270538,40.4223162 25.7226947,41.0609817 27.4555887,41.0709837 C29.7314736,41.0840591 31.1464712,39.6693056 31.1189839,37.4683581 C31.1060976,36.4414923 30.0041641,35.4090526 28.9827179,35.4669284 C28.4381682,35.4978198 28.0982404,35.9132128 28.2113072,36.427948 C28.2387425,36.3719997 28.2603063,36.3260533 28.2836367,36.2809404 C28.382778,36.0889761 28.4861281,35.879873 28.7376705,35.8911252 C28.9946688,35.9026379 29.1105935,36.1139288 29.1893661,36.3246468 C29.3438457,36.7374351 29.3662408,37.162778 29.1893661,37.5717636 C28.7325784,38.62801 27.8685215,39.136494 26.7766164,39.2854291 C25.7056515,39.4314991 24.9589743,38.9093666 24.4223747,38.0305504 C23.9337869,37.2303953 23.8206162,36.3394934 23.818122,35.4219197 C23.8173426,35.2039607 23.8711221,35.1000343 24.103491,35.0423148 C24.7179279,34.8894727 25.267206,34.589675 25.7682124,34.200537 C25.1613098,34.4661094 24.5478081,34.6923511 23.8086652,34.7186583 C23.9594555,33.9497592 24.0565703,33.2095116 24.2546451,32.4977069 C24.6228396,31.1756276 25.0675205,29.875063 25.448965,28.5565261 C26.2137246,25.9140867 25.7571447,23.5567547 23.7647582,21.5782461 C23.6026924,21.4173295 23.4316373,21.265425 23.2646871,21.109301 C23.3453823,21.0936209 23.4125677,21.1036228 23.4710236,21.1318054 C24.0998017,21.434937 24.7314897,21.7330678 25.3512786,22.0539112 C25.4551483,22.1077237 25.5497171,22.2544709 25.57497,22.3738691 C25.7362565,23.1367253 25.8643399,23.9067704 26.0265097,24.6694704 C26.4796083,26.8013421 27.1071393,28.8743481 28.1429787,30.8047745 C29.0583728,32.5107823 30.1421201,34.0793677 31.8156229,35.1324886 C32.7062317,35.6929097 33.6107141,36.2358275 34.5384749,36.7308193 C35.7949919,37.4009492 37.0965071,37.9867399 38.3479839,38.6655694 C39.6951207,39.3961277 40.3513861,40.835313 40.1191731,42.3511277 C39.8945464,43.8177141 39.185229,45.0316995 38.1052749,46.0047527 C36.4075063,47.5343201 34.6672858,49.0166908 32.9363143,50.5089072 C32.7730534,50.6496116 32.744371,50.7713018 32.7948249,50.9636308 C33.0400282,51.8986558 33.6284327,52.5359669 34.498465,52.9086433 C34.8430693,53.056224 35.2185384,53.1312907 35.579926,53.2394366 L36.6951096,53.2394366 C37.2624181,53.0793535 37.8316491,52.9255737 38.3959438,52.7553323 C38.5695969,52.7029784 38.7297402,52.6055637 38.9421562,52.5074197 C38.716854,52.4238097 38.5356665,52.3632772 38.3597791,52.2900859 C37.3201465,51.8573457 36.9791795,51.1057938 37.3547525,50.0416291 C37.6726489,49.1403606 38.2544025,48.4020404 38.8437943,47.6685128 C39.4422793,46.923733 40.0438299,46.1804639 40.6145158,45.4143257 C40.8609661,45.0833762 41.0463624,44.7034588 41.2329538,44.3323972 C41.317546,44.1643438 41.4073343,44.1125108 41.59351,44.1146467 C43.4445111,44.1360571 44.9912294,43.4725951 46.1825876,42.0304926 C46.8102226,41.2708141 47.0429552,40.3452179 47.1963436,39.4099324 C47.2940819,38.8140878 47.2531368,38.1955303 47.2811437,37.5876 C47.2848329,37.5066468 47.3079555,37.4108469 47.3568506,37.350106 C48.1623995,36.3491307 48.6139392,35.2044817 48.7574031,33.9317349 C48.76421,33.8714107 48.7872806,33.8129098 48.8028169,33.7535754 L48.8028169,32.4758797 C48.7261227,32.0598616 48.6729668,31.6373838 48.5689931,31.2280857 L48.5689931,31.2280857 Z M23.4796491,26.3024953 C23.5020962,27.3762973 23.3625294,28.4275949 23.0930605,29.4601388 C22.6641237,31.1045201 22.2088428,32.7420251 21.7599531,34.3998465 C21.330237,34.2321057 20.9879709,33.9115227 20.7599148,33.4620605 C20.4547488,32.8605377 20.327081,32.2098386 20.2309015,31.5495543 C20.0587552,30.3680232 20.1718739,29.2023284 20.3552957,28.0296531 C20.5830401,26.5743189 20.6040842,25.1146609 20.1939053,23.67683 C19.913005,22.6923683 19.412778,21.8382965 18.6898988,21.1151355 C18.6275794,21.0524054 18.5658472,20.9890918 18.5047104,20.9252028 C18.4989427,20.9191079 18.4969162,20.9094706 18.4675064,20.8478961 C19.6930548,21.4313947 20.8603031,21.998015 21.8591464,22.8553687 C22.9156142,23.7623154 23.450551,24.9052974 23.4796491,26.3024953 L23.4796491,26.3024953 Z M31.4178627,10.7007205 C31.3721891,10.6595146 31.32584,10.6189859 31.3095763,10.529854 C31.888472,10.8382471 32.5050913,11.0923589 33.0395605,11.4649311 C34.9782714,12.816339 36.4245495,14.5895995 37.3645211,16.7656984 C37.6272351,17.3736809 37.7489274,18.0147427 37.7235705,18.6832577 C37.6722332,20.0383121 37.6311322,21.393627 37.5837959,22.8087451 C37.0283345,22.2816637 36.6187272,21.6992591 36.4359289,21.0098546 C36.2098993,20.157033 36.0407148,19.2854057 35.9056166,18.4128407 C35.7066066,17.1275394 35.4911769,15.8481768 34.769181,14.7364508 C33.8112829,13.2614253 32.7282631,11.8845438 31.4178627,10.7007205 L31.4178627,10.7007205 Z M26.6602241,23.6703184 C26.6223447,23.4264169 26.5851927,23.1824113 26.537077,22.8692255 C26.6649526,22.9733603 26.7451282,23.0352994 26.8216145,23.1013539 C28.1923415,24.2850209 29.0700121,25.7929174 29.6903725,27.4728264 C30.3342193,29.2164457 31.1765046,30.8462409 32.482956,32.1943147 C32.8452789,32.5681893 33.2478715,32.9028896 33.5912807,33.2181591 C29.9909141,31.0220562 27.3427298,28.0644515 26.6602241,23.6703184 L26.6602241,23.6703184 Z M33.2611215,27.3410821 C32.851878,26.146215 32.5442178,24.9164975 32.1905204,23.7025121 L32.2695528,23.6626606 C32.5069099,24.3571703 32.7233268,25.0597023 32.9879114,25.7435328 C33.220696,26.345212 33.4752522,26.942932 33.7763652,27.51273 C34.6483201,29.1632583 35.9741529,30.2236202 37.8234393,30.6245312 C38.9285181,30.8642647 40.0231709,31.1499838 41.1045585,31.4809473 C41.9632634,31.7439149 42.7338426,32.2015557 43.4178552,32.8725712 C42.8817752,32.7506205 42.394954,32.6161153 41.8996113,32.5322969 C40.9059122,32.3641914 39.9012494,32.2563059 38.9121748,32.0659044 C36.16646,31.5374686 34.1876873,30.046242 33.2611215,27.3410821 L33.2611215,27.3410821 Z M43.1451127,31.9869308 C43.5887024,32.3054821 43.9161596,32.693474 44.1454628,33.1618982 L43.1451127,31.9869308 Z M41.5108923,43.743481 C41.54316,43.6363248 41.5673132,43.5473492 41.5965757,43.4601969 C42.2466058,41.5312291 41.9352565,39.71968 40.9166162,38.0026804 C40.5738824,37.4247559 40.0621201,37.0076438 39.4855626,36.6836747 C38.406232,36.0769946 37.3107936,35.4994347 36.2296444,34.8958802 C35.6670644,34.581861 35.120852,34.238409 34.5673132,33.9082408 C34.5816543,33.8881848 34.5962553,33.8681809 34.6107005,33.8483854 C35.7084252,34.4647028 36.8938078,34.8345662 38.1088082,35.1194652 C38.9863229,35.3252343 39.8700209,35.5059464 40.7420277,35.7322402 C41.8273858,36.0138573 42.8306976,36.4567036 43.5757641,37.3493246 C43.9380871,37.783315 44.2098423,38.2639811 44.3814689,38.803617 C44.4294808,38.9542712 44.4064621,39.0465807 44.253957,39.1205013 C43.8417517,39.3198629 43.4364052,39.5332376 43.0386449,39.7792749 C43.5168406,39.6464366 43.9949323,39.5135984 44.4728681,39.3809164 C44.8634057,41.0575436 43.3721816,43.2743275 41.5108923,43.743481 Z M47.1063474,36.2532788 C47.0805229,36.3054764 47.0482552,36.3545484 47.0398895,36.3691867 C46.6670705,35.7865216 46.3142563,35.186249 45.9103128,34.6228585 C45.6810096,34.3029527 45.3649837,34.0460279 45.0944756,33.7548777 C45.0333177,33.6889795 44.9632745,33.6010979 44.957299,33.5190507 C44.8415822,31.9046232 43.9723293,30.7463778 42.7309848,29.8171351 C41.6564866,29.0127083 40.4505794,28.456663 39.1831505,28.0489798 C38.335981,27.7765832 37.6839764,27.2745067 37.1406738,26.5957293 C36.303065,25.5492764 35.7056193,24.3628485 35.1564971,23.1500612 C34.9679832,22.7338347 34.8155821,22.3012508 34.6467613,21.8761163 L34.7043339,21.8467356 C34.7354065,21.8807006 34.7709477,21.9115399 34.7969281,21.9490471 C35.5000102,22.9648691 36.4196132,23.7178797 37.5365115,24.2374596 C37.6352371,24.2835102 37.7558902,24.3812374 37.7794284,24.4765684 C38.2520123,26.3862095 39.4816656,27.6837527 41.1634301,28.5600685 C41.957132,28.9736382 42.8348545,29.2263956 43.6778152,29.5434362 C44.1656236,29.7269093 44.6669938,29.8754277 45.1499178,30.0706217 C46.5720341,30.6453165 47.3051496,31.7702221 47.5723322,33.2308178 C47.7654187,34.2850326 47.5795028,35.294968 47.1063474,36.2532788 L47.1063474,36.2532788 Z M2.53704002,26.5718184 C3.10715437,26.3818857 3.68833637,26.2239905 4.25346248,26.0205136 C5.27142731,25.6540884 5.85266128,24.8929512 6.11319294,23.8634808 C6.25951466,23.2852437 6.24122445,22.7037247 6.13267825,22.1222057 C5.93335647,21.0544987 5.49636579,20.0734231 4.97592601,19.136158 C4.08656426,17.5345975 4.01090927,15.8704207 4.47969998,14.1418043 C4.78798365,13.0052819 5.30561755,11.9572662 5.82642105,10.9099277 C5.91906723,10.7236937 5.99030555,10.5268326 6.07141642,10.3348162 C6.00438693,10.3307529 5.97528886,10.3470061 5.95715453,10.3714379 C5.18153506,11.4110665 4.48058331,12.4947141 4.01454653,13.7149507 C3.56965781,14.879812 3.3910684,16.074627 3.61262943,17.3154404 C3.78326883,18.2707298 4.20404772,19.1273021 4.62170896,19.9902299 C4.9097279,20.5853452 5.22253216,21.189577 5.37363429,21.8256899 C5.70633955,23.2270032 5.21156842,24.2715808 3.96918472,24.866071 C3.59517058,25.045012 3.20390545,25.1880605 2.81851189,25.3425697 C2.29407113,25.5527667 1.75253524,25.726915 1.245969,25.9736295 C0.608357526,26.2840543 0.207895325,26.813011 0.0519608409,27.5160119 C0.0430235763,27.5562801 0.0177186468,27.5929018 0,27.6312946 L0,28.8025634 C0.0736285116,29.1467968 0.147205062,29.4910823 0.220729652,29.8353678 C0.275496379,29.7304516 0.271599316,29.6336099 0.276067948,29.5370287 C0.306361118,28.8812766 0.432677922,28.2574577 0.817655793,27.7026106 C1.24217586,27.0910336 1.86570595,26.7955076 2.53704002,26.5718184 Z" id="形状"></path>
                    <path d="M28.8219851,44.0234157 C28.543983,43.7651663 28.2662928,43.4889589 27.9422255,43.3008706 C24.2705903,41.1699863 20.4348677,40.7815419 16.4388013,42.2630179 C16.2302087,42.3403309 16.0717365,42.3394956 15.9002663,42.2089353 C15.6041189,41.9834695 15.3037081,41.763746 15.0051691,41.5415168 C13.8398685,40.673951 12.6830946,39.7942219 11.5034442,38.94665 C11.1849402,38.717791 10.8035776,38.5709432 10.4388525,38.4151687 C10.1880423,38.3080999 9.98106141,38.383377 9.79066607,38.612758 C8.67039072,39.9632038 8.31289254,41.458879 8.80827396,43.1684832 C9.0345439,43.9491305 9.19275608,44.7540002 9.3188371,45.5578258 C9.37868009,45.9396403 9.29086531,46.3449463 9.26923657,46.7528103 C9.44382629,46.7092206 9.62059968,46.6530499 9.80174041,46.6220934 C10.1906939,46.5557431 10.5877581,46.4261746 10.9709924,46.4564003 C13.1450971,46.6275747 15.2905021,46.9831832 17.3804835,47.6248656 C19.1602276,48.1713291 20.8656229,48.8873489 22.3119931,50.0933483 C22.9184818,50.5990933 23.4440707,51.2027717 24.0052222,51.7605634 C24.2770893,51.4011962 24.5831672,50.9894692 24.89694,50.583589 C25.9225376,49.2570523 26.9671643,47.9448715 27.9698334,46.6010555 C28.3544195,46.0856528 28.6542584,45.5049961 28.97557,44.9441766 C29.167889,44.6083009 29.0987394,44.2805167 28.8219851,44.0234157 L28.8219851,44.0234157 Z M11.4087665,29.2338705 C12.3545041,29.5281402 13.2878156,29.8627108 14.2317335,30.1631405 C14.3466362,30.1997349 14.5128552,30.1696659 14.6230266,30.1101542 C15.5291982,29.6215318 16.1313715,28.8671949 16.4874139,27.9059243 C16.5159577,27.8289245 16.5498565,27.7542216 16.5813118,27.6783181 C16.6100115,27.6831208 16.6387112,27.6879757 16.6673069,27.692674 L16.5291637,30.3240831 C17.2622013,30.2661897 17.8065074,29.8834877 18.0247185,29.2197756 C18.360068,28.1993065 18.1959807,27.1725731 18.0506106,26.1092451 C17.5332885,26.5096962 17.0579241,26.8908321 16.5688857,27.2532271 C15.829349,27.8013612 15.0376122,28.2498393 14.1179227,28.4131832 C13.4206036,28.5370093 12.7904585,28.0516235 12.7710654,27.3416594 C12.7575994,26.8469814 12.5865972,26.5470738 12.0903839,26.4135901 C11.7286223,26.316231 11.5933387,26.0594954 11.6088844,25.6818049 C11.6124198,25.5934771 11.6273416,25.505619 11.6402876,25.3879007 C11.5862678,25.3663929 11.5467537,25.3496879 11.5066158,25.3348622 C10.9924132,25.1446335 10.8013939,24.8338676 10.8634206,24.2896488 C10.8754828,24.1838328 10.8960197,24.0773904 10.8927442,23.971731 C10.8855173,23.7358767 10.8192272,23.5663728 10.5409651,23.4962116 C10.235979,23.4192118 9.94799439,23.2697539 9.65741013,23.1409685 C9.45224902,23.0500305 9.38923451,22.8926899 9.43337586,22.662839 C9.53897196,22.1136086 9.60391019,21.5561301 9.72042465,21.0095099 C9.93910373,19.9832463 9.8004406,19.0437967 9.28525016,18.1089409 C8.80796201,17.2426803 8.43455422,16.3139323 8.07014108,15.3909789 C7.47696238,13.8886216 6.91035167,12.3743621 6.57988942,10.7848776 C6.55436127,10.6620956 6.5322126,10.5386871 6.49623402,10.3521127 C5.89192899,11.4474934 5.32516231,12.482475 4.94873898,13.60568 C4.79156664,14.0747262 4.65160371,14.5591723 4.58619755,15.0477947 C4.39491835,16.4768064 4.64614453,17.858783 5.24784995,19.1512832 C5.75617742,20.2433229 6.38419088,21.2785655 6.93198042,22.3529605 C7.18003508,22.8396514 7.41566361,23.345292 7.56092974,23.8690472 C7.76250339,24.596134 7.5027505,25.1536125 6.83413115,25.4918895 C6.40368795,25.7095771 5.9330028,25.852353 5.47183223,26.0020197 C4.78267597,26.2256584 4.06632781,26.3767346 3.3961487,26.6457379 C1.70520725,27.3244845 0.880819358,28.646845 0.970453864,30.4653973 C1.02171815,31.5065388 1.37984024,32.4776236 1.68337054,33.4621769 C1.91801122,34.2233002 2.16830154,34.9898005 2.29017119,35.7729536 C2.43039409,36.673564 2.02480314,37.1454292 1.12523456,37.3344049 C0.926936416,37.3761675 0.724738854,37.3989803 0.492957746,37.4354704 C1.53566078,38.1673077 3.6120202,37.8356083 4.15440255,36.162442 C4.32795243,35.6269411 4.38748347,35.0784416 4.28334314,34.5310905 C4.13589334,33.7557157 3.92995234,32.9917212 3.77366387,32.2178081 C3.53439589,31.0330554 3.80636695,30.3638098 4.87449415,29.8129089 C5.64080679,29.4176781 6.4724216,29.1500321 7.27559669,28.8273638 C7.33304804,28.80429 7.39647849,28.7963029 7.45101828,28.7827822 C6.94253483,29.0895807 6.41226666,29.3618728 5.9343546,29.7072495 C4.57044392,30.6926902 4.04745465,32.0461638 4.35701605,33.6954732 C4.49073992,34.4082563 4.73198361,35.1000537 4.90782113,35.8056328 C5.22518136,37.0788178 4.85801263,37.9525436 3.73669744,38.6295675 C3.59070341,38.7176865 3.44138189,38.8003243 3.30219884,38.8805085 L5.07180445,38.8805085 C5.08563437,38.6527457 5.09743659,38.468416 5.10778303,38.2841386 C5.21738253,36.3317893 5.33218125,34.3797533 5.43382595,32.4269343 C5.48165875,31.5084703 5.77109918,30.6900278 6.35757089,29.9806901 C6.85872345,29.374767 7.49396382,29.0010962 8.27103884,28.8801413 C9.34831666,28.7123078 10.3883161,28.9163181 11.4087665,29.2338705 L11.4087665,29.2338705 Z M11.0526201,26.8807569 C10.9146329,27.4376612 9.93692006,28.0702601 9.18376144,28.1628165 L11.0526201,26.8807569 Z" id="形状"></path>
                </g>
            </g>
        </g>
    </g>
</svg>