<?xml version="1.0" encoding="UTF-8"?>
<svg width="20px" height="20px" viewBox="0 0 20 20" version="1.1" xmlns="http://www.w3.org/2000/svg" xmlns:xlink="http://www.w3.org/1999/xlink">
    <!-- Generator: Sketch 61.2 (89653) - https://sketch.com -->
    <title>编组</title>
    <desc>Created with Sketch.</desc>
    <g id="WRX_WEB-" stroke="none" stroke-width="1" fill="none" fill-rule="evenodd">
        <g id="会员购买" transform="translate(-406.000000, -578.000000)" fill-rule="nonzero">
            <g id="编组-5" transform="translate(378.000000, 566.000000)">
                <g id="编组" transform="translate(28.000000, 12.000000)">
                    <path d="M16.796875,19.9888393 L3.02008929,19.9888393 C1.359375,19.9888393 0,18.6316964 0,16.9709821 L0,3.03571429 C0,1.375 1.359375,0.0178571429 3.01785714,0.0178571429 L16.9174107,0.0178571429 C18.578125,0.0178571429 19.9352705,1.37723214 19.9352705,3.03571429 L19.9352705,16.8482143 C19.9375,18.5758929 18.5245536,19.9888393 16.796875,19.9888393 Z" id="路径" fill="#5DB540"></path>
                    <path d="M9.953125,3.96428571 C12.2946429,3.96428571 14.3683036,4.94642857 15.6361607,6.45535714 C15.6808036,6.50892857 13.8504464,7.34598214 11.671875,8.33258929 C10.53125,8.84821429 9.30357143,9.45982143 8.265625,9.765625 C7.828125,9.90848214 6.453125,8.06696429 6.13839286,8.60491071 C5.9375,8.74107143 6.27901786,9.34151786 6.59598214,10.0223214 C7.01116071,10.9107143 7.47098214,11.9084821 7.47991071,11.9241071 C7.53125,11.9709821 7.6875,12.078125 7.984375,12.0044643 C9.39285714,11.296875 16.1071429,7.09598214 16.1763393,7.20982143 C16.6651786,8.02455357 16.9419643,8.94866071 16.9419643,9.92633929 C16.9419643,13.21875 13.8125,15.8883929 9.953125,15.8883929 C9.11383929,15.8883929 8.31026786,15.7633929 7.56473214,15.53125 C7.14508929,15.3883929 5.63392857,16.7120536 5.32142857,16.5647321 C5.21428571,16.5133929 5.15625,16.4174107 5.18973214,16.3080357 C5.73883929,14.3928571 5.71651786,14.7276786 5.09375,14.2120536 C3.78125,13.1272321 2.96428571,11.609375 2.96428571,9.92633929 C2.96428571,6.63392857 6.09151786,3.96428571 9.953125,3.96428571 Z" id="路径" fill="#FFFFFF"></path>
                </g>
            </g>
        </g>
    </g>
</svg>